<svg width="94" height="94" viewBox="0 0 94 94" fill="none" xmlns="http://www.w3.org/2000/svg">
<path d="M93.08 6.54V86.54C93.08 88.82 91.92 90.83 90.16 91.98C90 92.1 89.82 92.21 89.65 92.3C88.72 92.81 87.67 93.09 86.54 93.09H6.53999C2.92999 93.09 0 90.16 0 86.54V6.54C0 2.93 2.92999 0 6.53999 0H86.54C90.15 0 93.08 2.93 93.08 6.54Z" fill="#E8E1EF"/>
<path d="M42.285 18.3681C42.285 18.3681 25.359 4.64608 10.439 31.3021C-4.48101 57.9581 10.412 74.7091 29.381 67.4521C48.35 60.1951 43.34 26.1521 43.34 26.1521L42.285 18.3681Z" fill="black"/>
<path d="M61.684 27.0808C61.684 27.0808 64.723 19.9948 64.142 16.8858C63.56 13.7758 51.236 4.62782 40.909 9.59582C30.582 14.5628 30.049 28.2268 32.459 33.8458C38.665 48.3168 51.117 41.4718 51.117 41.4718C51.117 41.4718 71.013 35.1428 61.684 27.0808Z" fill="black"/>
<path d="M81.14 93.0896H27.36C28.12 74.2096 29.15 58.8896 30.55 56.5896C30.87 56.0496 31.33 55.5096 31.91 54.9696C32.04 54.8596 32.11 54.8096 32.11 54.8096C37.44 50.1296 51.92 46.3696 63.98 52.2396C63.98 52.2396 64 52.2396 64.03 52.2596C67.11 53.7596 70.03 55.8896 72.6 58.7896C76.9 63.6596 79.73 77.1996 81.14 93.0896Z" fill="#507849"/>
<path d="M60.079 43.5501L60.092 43.8321L60.141 49.1541L60.196 53.3261C60.196 53.3261 60.604 54.2751 55.741 54.2211C49.223 54.1241 46.178 51.2741 46.178 51.2741V41.7031L48.167 41.9721L60.079 43.5501Z" fill="#F98875"/>
<path d="M60.093 43.8321L60.142 49.1541C56.966 48.9401 51.148 47.8831 48.561 43.0441C48.361 42.6501 48.223 42.2931 48.169 41.9941L60.07 43.7531L60.093 43.8321Z" fill="black"/>
<path d="M60.786 18.3117C60.786 18.3117 67.569 31.8107 65.81 39.6937C64.051 47.5767 56.91 46.7347 52.596 45.4607C48.282 44.1867 46.177 41.6967 46.177 41.6967C46.177 41.6967 42.294 43.2497 39.452 39.7147C36.609 36.1797 38.011 31.8687 40.217 30.7797C42.423 29.6907 45.196 31.1767 45.196 31.1767L42.876 27.2727C42.876 27.2727 50.632 6.38066 60.786 18.3117Z" fill="#F98875"/>
<path d="M45.196 31.1772C45.196 31.1772 51.085 27.8002 53.063 23.3512C55.042 18.9022 55.02 16.7182 55.02 16.7182C55.02 16.7182 56.038 19.5272 58.27 20.0942C60.502 20.6612 61.873 20.6732 61.873 20.6732L63.468 24.6592L62.099 15.0402C62.099 15.0402 55.986 12.1352 55.188 12.1722C54.39 12.2102 44.405 14.4892 43.851 15.1232C43.297 15.7572 40.491 23.7282 40.491 23.7282L40.437 27.2712L45.196 31.1772Z" fill="black"/>
<path d="M31.77 93.0896H7.62999C16.06 68.1696 30.08 56.4096 31.91 54.9696C32.04 54.8596 32.11 54.8096 32.11 54.8096C32.11 54.8096 31.5 74.4496 31.77 93.0896Z" fill="#507849"/>
<path d="M90.16 91.9802C90 92.1002 89.82 92.2102 89.65 92.3002C88.72 92.8102 87.67 93.0902 86.54 93.0902H68.01L63.98 52.2402C63.98 52.2402 64 52.2402 64.03 52.2602C64.83 52.4502 81.12 56.6302 90.16 91.9802Z" fill="#507849"/>
<path d="M55.684 54.6987C55.396 54.6987 55.096 54.6947 54.784 54.6857C48.652 54.5107 44.804 51.0397 44.642 50.8917C44.439 50.7047 44.426 50.3897 44.612 50.1857C44.799 49.9827 45.114 49.9677 45.318 50.1547C45.355 50.1887 49.067 53.5207 54.812 53.6847C60.352 53.8457 61.582 52.4747 61.594 52.4617C61.768 52.2547 62.079 52.2197 62.291 52.3867C62.502 52.5547 62.548 52.8527 62.387 53.0697C62.259 53.2447 61.02 54.6987 55.684 54.6987Z" fill="white"/>
<path d="M45.247 38.0921C45.136 38.0921 45.024 38.0551 44.931 37.9791L40.289 34.1881C40.075 34.0131 40.043 33.6981 40.218 33.4841C40.392 33.2701 40.707 33.2371 40.922 33.4131L45.564 37.2041C45.778 37.3791 45.81 37.6941 45.635 37.9081C45.536 38.0301 45.392 38.0921 45.247 38.0921Z" fill="black"/>
<path d="M40.962 37.3536C40.729 37.3536 40.52 37.1896 40.472 36.9516C40.418 36.6806 40.594 36.4176 40.864 36.3636L43.443 35.8476C43.718 35.7906 43.977 35.9685 44.031 36.2395C44.085 36.5105 43.909 36.7736 43.639 36.8276L41.06 37.3436C41.028 37.3506 40.995 37.3536 40.962 37.3536Z" fill="black"/>
<path d="M54.692 30.9576C54.458 30.9576 54.249 30.7926 54.202 30.5546L53.664 27.8236C53.633 27.6636 53.681 27.4976 53.795 27.3806L54.871 26.2636C55.062 26.0646 55.38 26.0586 55.577 26.2506C55.776 26.4416 55.782 26.7586 55.59 26.9576L54.695 27.8866L55.183 30.3616C55.236 30.6326 55.06 30.8956 54.789 30.9486C54.757 30.9546 54.725 30.9576 54.692 30.9576Z" fill="black"/>
<path d="M62.145 30.1513C61.911 30.1513 61.702 29.9863 61.655 29.7483L61.117 27.0173C61.086 26.8573 61.134 26.6913 61.248 26.5743L62.323 25.4573C62.515 25.2573 62.832 25.2523 63.03 25.4443C63.229 25.6353 63.235 25.9523 63.043 26.1513L62.148 27.0803L62.636 29.5553C62.689 29.8263 62.513 30.0893 62.242 30.1423C62.209 30.1483 62.177 30.1513 62.145 30.1513Z" fill="black"/>
<path d="M58.505 41.531C56.886 41.531 55.132 38.373 54.789 37.723C54.698 37.55 54.715 37.34 54.834 37.185C54.953 37.03 55.151 36.958 55.342 37.002L60.253 38.123C60.493 38.178 60.657 38.399 60.641 38.644C60.633 38.753 60.437 41.317 58.644 41.523C58.598 41.529 58.551 41.531 58.505 41.531ZM56.242 38.233C57.054 39.507 58.014 40.587 58.529 40.53C59.192 40.454 59.471 39.546 59.579 38.995L56.242 38.233Z" fill="black"/>
<path d="M60.948 36.4473C60.903 36.4473 60.857 36.4413 60.812 36.4283C60.546 36.3533 60.392 36.0773 60.467 35.8113C61.485 32.2083 59.067 29.8913 58.963 29.7943C58.762 29.6063 58.751 29.2903 58.939 29.0883C59.127 28.8863 59.441 28.8743 59.644 29.0623C59.766 29.1753 62.618 31.8783 61.429 36.0833C61.366 36.3043 61.166 36.4473 60.948 36.4473Z" fill="black"/>
<path d="M51.929 26.7726C51.872 26.7726 51.814 26.7626 51.758 26.7416C51.5 26.6466 51.366 26.3626 51.46 26.1046C51.774 25.2316 52.985 23.6986 55.318 24.1396C55.589 24.1906 55.767 24.4526 55.716 24.7236C55.665 24.9946 55.403 25.1716 55.131 25.1216C53.1 24.7356 52.465 26.2706 52.399 26.4466C52.323 26.6476 52.132 26.7726 51.929 26.7726Z" fill="black"/>
<path d="M60.31 24.8291C60.217 24.8291 60.124 24.8041 60.04 24.7501C59.809 24.6011 59.741 24.2951 59.888 24.0631C59.912 24.0251 60.501 23.1151 61.525 22.9701C62.189 22.8751 62.863 23.1211 63.516 23.6991C63.722 23.8821 63.742 24.1981 63.558 24.4041C63.375 24.6111 63.06 24.6301 62.852 24.4461C62.432 24.0731 62.034 23.9131 61.669 23.9581C61.104 24.0341 60.732 24.5951 60.729 24.6001C60.635 24.7491 60.474 24.8291 60.31 24.8291Z" fill="black"/>
<path d="M72.503 93.0529C72.396 93.0529 72.289 93.0189 72.197 92.9489C71.979 92.7799 71.939 92.4659 72.108 92.2469C78.507 83.9819 72.117 70.2149 72.051 70.0769C71.933 69.8279 72.04 69.5289 72.289 69.4109C72.542 69.2939 72.837 69.3999 72.955 69.6489C73.232 70.2349 79.675 84.1069 72.898 92.8589C72.8 92.9869 72.652 93.0529 72.503 93.0529Z" fill="white"/>
</svg>
