<svg width="346" height="137" viewBox="0 0 346 137" fill="none" xmlns="http://www.w3.org/2000/svg">
<g clip-path="url(#clip0_5_79)">
<path d="M16.848 121.785C13.68 121.785 11.232 120.921 9.504 119.192C7.776 117.392 6.912 114.908 6.912 111.74V54.7165C6.912 51.4765 7.776 48.9925 9.504 47.2645C11.304 45.5365 13.788 44.6725 16.956 44.6725H43.524C52.164 44.6725 58.824 46.7965 63.504 51.0445C68.256 55.2205 70.632 61.0525 70.632 68.5405C70.632 73.3645 69.552 77.5765 67.392 81.1765C65.304 84.7045 62.244 87.4405 58.212 89.3845C54.252 91.2565 49.356 92.1925 43.524 92.1925L44.388 90.2485H49.572C52.668 90.2485 55.404 91.0045 57.78 92.5165C60.156 93.9565 62.136 96.1885 63.72 99.2125L69.12 108.932C70.272 111.02 70.812 113.072 70.74 115.088C70.668 117.032 69.876 118.652 68.364 119.948C66.924 121.173 64.8 121.785 61.992 121.785C59.184 121.785 56.88 121.209 55.08 120.056C53.352 118.904 51.804 117.104 50.436 114.656L40.608 96.6205C39.744 95.0365 38.628 93.9565 37.26 93.3805C35.964 92.7325 34.452 92.4085 32.724 92.4085H26.784V111.74C26.784 114.908 25.956 117.392 24.3 119.192C22.644 120.921 20.16 121.785 16.848 121.785ZM26.784 78.3685H39.96C43.776 78.3685 46.692 77.6125 48.708 76.1005C50.724 74.5885 51.732 72.2485 51.732 69.0805C51.732 66.0565 50.724 63.7885 48.708 62.2765C46.692 60.6925 43.776 59.9005 39.96 59.9005H26.784V78.3685ZM109.337 122.001C102.857 122.001 97.2413 120.885 92.4893 118.652C87.8093 116.348 84.2093 113.108 81.6893 108.932C79.1693 104.756 77.9093 99.8245 77.9093 94.1365C77.9093 88.6645 79.0973 83.8765 81.4733 79.7725C83.9213 75.5965 87.2333 72.3565 91.4093 70.0525C95.6573 67.6765 100.481 66.4885 105.881 66.4885C109.841 66.4885 113.441 67.1365 116.681 68.4325C119.921 69.6565 122.693 71.4925 124.997 73.9405C127.301 76.3165 129.029 79.1965 130.181 82.5805C131.405 85.9645 132.017 89.7445 132.017 93.9205C132.017 95.3605 131.621 96.4405 130.829 97.1605C130.037 97.8085 128.777 98.1325 127.049 98.1325H94.0013V89.0605H117.977L116.249 90.4645C116.249 87.8005 115.889 85.6405 115.169 83.9845C114.449 82.3285 113.369 81.0685 111.929 80.2045C110.561 79.3405 108.833 78.9085 106.745 78.9085C104.513 78.9085 102.569 79.4485 100.913 80.5285C99.3293 81.5365 98.1053 83.0485 97.2413 85.0645C96.3773 87.0805 95.9453 89.6005 95.9453 92.6245V93.5965C95.9453 98.7085 97.0613 102.38 99.2933 104.612C101.597 106.772 105.125 107.852 109.877 107.852C111.461 107.852 113.261 107.672 115.277 107.312C117.365 106.88 119.345 106.304 121.217 105.584C123.089 104.864 124.709 104.756 126.077 105.26C127.445 105.692 128.489 106.484 129.209 107.636C130.001 108.716 130.433 109.976 130.505 111.416C130.577 112.784 130.253 114.152 129.533 115.52C128.813 116.816 127.625 117.824 125.969 118.544C123.449 119.696 120.749 120.56 117.869 121.137C115.061 121.713 112.217 122.001 109.337 122.001ZM161.468 122.001C158.3 122.001 155.06 121.749 151.748 121.245C148.508 120.812 145.556 119.984 142.892 118.76C141.092 118.04 139.796 117.068 139.004 115.844C138.284 114.62 137.924 113.324 137.924 111.956C137.996 110.588 138.392 109.364 139.112 108.284C139.904 107.132 140.912 106.34 142.136 105.908C143.432 105.404 144.872 105.44 146.456 106.016C149.48 107.096 152.18 107.888 154.556 108.392C157.004 108.824 159.344 109.04 161.576 109.04C164.24 109.04 166.148 108.68 167.3 107.96C168.452 107.168 169.028 106.16 169.028 104.937C169.028 103.856 168.632 103.028 167.84 102.452C167.12 101.876 166.076 101.48 164.708 101.264L152.72 99.3205C148.256 98.5285 144.8 96.9085 142.352 94.4605C139.904 91.9405 138.68 88.6645 138.68 84.6325C138.68 80.8885 139.724 77.6845 141.812 75.0205C143.972 72.2845 146.888 70.1965 150.56 68.7565C154.304 67.2445 158.588 66.4885 163.412 66.4885C166.652 66.4885 169.604 66.7405 172.268 67.2445C174.932 67.6765 177.524 68.5045 180.044 69.7285C181.628 70.3765 182.744 71.3125 183.392 72.5365C184.04 73.7605 184.292 75.0565 184.148 76.4245C184.004 77.7205 183.536 78.9445 182.744 80.0965C182.024 81.1765 181.016 81.9325 179.72 82.3645C178.424 82.7245 176.912 82.6165 175.184 82.0405C172.808 81.1045 170.684 80.4205 168.812 79.9885C167.012 79.5565 165.32 79.3405 163.736 79.3405C160.784 79.3405 158.696 79.7365 157.472 80.5285C156.248 81.3205 155.636 82.3285 155.636 83.5525C155.636 84.4885 155.96 85.2805 156.608 85.9285C157.256 86.5045 158.264 86.9005 159.632 87.1165L171.62 89.1685C176.228 89.8885 179.756 91.4725 182.204 93.9205C184.724 96.2965 185.984 99.5365 185.984 103.64C185.984 109.472 183.752 114.008 179.288 117.249C174.824 120.417 168.884 122.001 161.468 122.001ZM221.214 122.001C215.814 122.001 211.35 121.173 207.822 119.516C204.366 117.86 201.774 115.376 200.046 112.064C198.318 108.68 197.454 104.468 197.454 99.4285V81.8245H193.782C191.478 81.8245 189.678 81.2125 188.382 79.9885C187.158 78.7645 186.546 77.0005 186.546 74.6965C186.546 72.3925 187.158 70.6645 188.382 69.5125C189.678 68.2885 191.478 67.6765 193.782 67.6765H197.454V60.9805C197.454 57.8125 198.282 55.4005 199.938 53.7445C201.594 52.0885 203.97 51.2605 207.066 51.2605C210.162 51.2605 212.538 52.0885 214.194 53.7445C215.85 55.4005 216.678 57.8125 216.678 60.9805V67.6765H225.534C227.91 67.6765 229.71 68.2885 230.934 69.5125C232.23 70.6645 232.878 72.3925 232.878 74.6965C232.878 77.0005 232.23 78.7645 230.934 79.9885C229.71 81.2125 227.91 81.8245 225.534 81.8245H216.678V98.7805C216.678 101.444 217.29 103.424 218.514 104.72C219.81 105.944 221.826 106.557 224.562 106.557C225.57 106.557 226.542 106.448 227.478 106.232C228.414 106.016 229.278 105.908 230.07 105.908C231.222 105.836 232.158 106.196 232.878 106.988C233.598 107.708 233.958 109.4 233.958 112.064C233.958 114.224 233.634 116.06 232.986 117.572C232.338 119.012 231.186 120.056 229.53 120.704C228.522 121.065 227.154 121.353 225.426 121.569C223.698 121.857 222.294 122.001 221.214 122.001ZM249.163 121.785C245.995 121.785 243.547 120.957 241.819 119.3C240.163 117.644 239.335 115.232 239.335 112.064V76.3165C239.335 73.2205 240.127 70.8445 241.711 69.1885C243.367 67.5325 245.707 66.7045 248.731 66.7045C251.755 66.7045 254.059 67.5325 255.643 69.1885C257.227 70.8445 258.019 73.2205 258.019 76.3165V80.7445H256.939C257.659 76.4245 259.495 73.0045 262.447 70.4845C265.471 67.9645 269.215 66.6325 273.679 66.4885C275.767 66.4165 277.315 66.9565 278.323 68.1085C279.403 69.1885 279.979 71.2405 280.051 74.2645C280.051 76.8565 279.511 78.9085 278.431 80.4205C277.351 81.9325 275.299 82.8325 272.275 83.1205L269.791 83.3365C265.975 83.6965 263.203 84.7765 261.475 86.5765C259.747 88.3045 258.883 90.8965 258.883 94.3525V112.064C258.883 115.232 258.055 117.644 256.399 119.3C254.743 120.957 252.331 121.785 249.163 121.785ZM312.106 122.001C306.202 122.001 301.054 120.885 296.662 118.652C292.27 116.42 288.85 113.216 286.402 109.04C283.954 104.864 282.73 99.9325 282.73 94.2445C282.73 89.9245 283.414 86.0725 284.782 82.6885C286.15 79.2325 288.13 76.3165 290.722 73.9405C293.314 71.4925 296.41 69.6565 300.01 68.4325C303.61 67.1365 307.642 66.4885 312.106 66.4885C318.01 66.4885 323.158 67.6045 327.55 69.8365C331.942 72.0685 335.326 75.2725 337.702 79.4485C340.15 83.5525 341.374 88.4845 341.374 94.2445C341.374 98.4925 340.69 102.344 339.322 105.8C337.954 109.256 335.974 112.208 333.382 114.656C330.862 117.032 327.766 118.868 324.094 120.164C320.494 121.389 316.498 122.001 312.106 122.001ZM312.106 107.852C314.05 107.852 315.778 107.384 317.29 106.448C318.802 105.44 319.954 103.964 320.746 102.02C321.61 100.004 322.042 97.4125 322.042 94.2445C322.042 89.4205 321.106 85.9645 319.234 83.8765C317.362 81.7165 314.986 80.6365 312.106 80.6365C310.162 80.6365 308.434 81.1045 306.922 82.0405C305.41 82.9765 304.222 84.4525 303.358 86.4685C302.494 88.4125 302.062 91.0045 302.062 94.2445C302.062 98.9965 302.998 102.452 304.87 104.612C306.742 106.772 309.154 107.852 312.106 107.852Z" fill="#343434"/>
<path d="M236.237 55.486C234.653 55.486 233.429 55.054 232.565 54.19C231.701 53.29 231.269 52.048 231.269 50.464V21.952C231.269 20.332 231.701 19.09 232.565 18.226C233.465 17.362 234.707 16.93 236.291 16.93H249.575C253.895 16.93 257.225 18.046 259.564 20.278C261.941 22.474 263.129 25.516 263.129 29.404C263.129 33.292 261.941 36.352 259.564 38.584C257.225 40.78 253.895 41.878 249.575 41.878H241.205V50.464C241.205 52.048 240.791 53.29 239.963 54.19C239.135 55.054 237.893 55.486 236.237 55.486ZM241.205 34.264H247.847C249.719 34.264 251.159 33.868 252.167 33.076C253.175 32.248 253.679 31.024 253.679 29.404C253.679 27.748 253.175 26.524 252.167 25.732C251.159 24.94 249.719 24.544 247.847 24.544H241.205V34.264ZM272.729 55.486C271.145 55.486 269.921 55.054 269.057 54.19C268.193 53.29 267.761 52.048 267.761 50.464V21.952C267.761 20.332 268.193 19.09 269.057 18.226C269.957 17.362 271.199 16.93 272.783 16.93H286.067C290.387 16.93 293.717 17.992 296.057 20.116C298.433 22.204 299.621 25.12 299.621 28.864C299.621 31.276 299.081 33.382 298.001 35.182C296.957 36.946 295.427 38.314 293.411 39.286C291.431 40.222 288.983 40.69 286.067 40.69L286.499 39.718H289.091C290.639 39.718 292.007 40.096 293.195 40.852C294.383 41.572 295.373 42.688 296.165 44.2L298.865 49.06C299.441 50.104 299.711 51.13 299.675 52.138C299.639 53.11 299.243 53.92 298.487 54.568C297.767 55.18 296.705 55.486 295.301 55.486C293.897 55.486 292.745 55.198 291.845 54.622C290.981 54.046 290.207 53.146 289.523 51.922L284.609 42.904C284.177 42.112 283.619 41.572 282.935 41.284C282.287 40.96 281.531 40.798 280.667 40.798H277.697V50.464C277.697 52.048 277.283 53.29 276.455 54.19C275.627 55.054 274.385 55.486 272.729 55.486ZM277.697 33.778H284.285C286.193 33.778 287.651 33.4 288.659 32.644C289.667 31.888 290.171 30.718 290.171 29.134C290.171 27.622 289.667 26.488 288.659 25.732C287.651 24.94 286.193 24.544 284.285 24.544H277.697V33.778ZM323.984 55.594C320.132 55.594 316.748 54.784 313.832 53.164C310.916 51.508 308.648 49.204 307.028 46.252C305.444 43.3 304.652 39.862 304.652 35.938C304.652 32.986 305.102 30.304 306.002 27.892C306.938 25.48 308.252 23.41 309.944 21.682C311.672 19.954 313.724 18.64 316.1 17.74C318.476 16.804 321.104 16.336 323.984 16.336C327.836 16.336 331.202 17.146 334.082 18.766C336.998 20.386 339.266 22.672 340.886 25.624C342.506 28.54 343.316 31.978 343.316 35.938C343.316 38.89 342.848 41.572 341.912 43.984C341.012 46.396 339.698 48.484 337.97 50.248C336.278 51.976 334.244 53.308 331.868 54.244C329.492 55.144 326.864 55.594 323.984 55.594ZM323.984 47.278C325.892 47.278 327.512 46.828 328.844 45.928C330.176 45.028 331.202 43.732 331.922 42.04C332.642 40.348 333.002 38.314 333.002 35.938C333.002 32.374 332.21 29.602 330.626 27.622C329.042 25.642 326.828 24.652 323.984 24.652C322.112 24.652 320.492 25.102 319.124 26.002C317.792 26.866 316.766 28.144 316.046 29.836C315.326 31.492 314.966 33.526 314.966 35.938C314.966 39.502 315.758 42.292 317.342 44.308C318.926 46.288 321.14 47.278 323.984 47.278Z" fill="#59A352"/>
</g>
<defs>
<clipPath id="clip0_5_79">
<rect width="345.812" height="137" fill="white"/>
</clipPath>
</defs>
</svg>
