<svg width="131" height="52" viewBox="0 0 131 52" fill="none" xmlns="http://www.w3.org/2000/svg">
<g clip-path="url(#clip0_9_5)">
<path d="M6.318 45.7942C5.13 45.7942 4.212 45.4702 3.564 44.8222C2.916 44.1472 2.592 43.2157 2.592 42.0277V20.6437C2.592 19.4287 2.916 18.4972 3.564 17.8492C4.239 17.2012 5.1705 16.8772 6.3585 16.8772H16.3215C19.5615 16.8772 22.059 17.6737 23.814 19.2667C25.596 20.8327 26.487 23.0197 26.487 25.8277C26.487 27.6367 26.082 29.2162 25.272 30.5662C24.489 31.8892 23.3415 32.9152 21.8295 33.6442C20.3445 34.3462 18.5085 34.6972 16.3215 34.6972L16.6455 33.9682H18.5895C19.7505 33.9682 20.7765 34.2517 21.6675 34.8187C22.5585 35.3587 23.301 36.1957 23.895 37.3297L25.92 40.9747C26.352 41.7577 26.5545 42.5272 26.5275 43.2832C26.5005 44.0122 26.2035 44.6197 25.6365 45.1057C25.0965 45.5647 24.3 45.7942 23.247 45.7942C22.194 45.7942 21.33 45.5782 20.655 45.1462C20.007 44.7142 19.4265 44.0392 18.9135 43.1212L15.228 36.3577C14.904 35.7637 14.4855 35.3587 13.9725 35.1427C13.4865 34.8997 12.9195 34.7782 12.2715 34.7782H10.044V42.0277C10.044 43.2157 9.7335 44.1472 9.1125 44.8222C8.4915 45.4702 7.56 45.7942 6.318 45.7942ZM10.044 29.5132H14.985C16.416 29.5132 17.5095 29.2297 18.2655 28.6627C19.0215 28.0957 19.3995 27.2182 19.3995 26.0302C19.3995 24.8962 19.0215 24.0457 18.2655 23.4787C17.5095 22.8847 16.416 22.5877 14.985 22.5877H10.044V29.5132ZM41.0015 45.8752C38.5715 45.8752 36.4655 45.4567 34.6835 44.6197C32.9285 43.7557 31.5785 42.5407 30.6335 40.9747C29.6885 39.4087 29.216 37.5592 29.216 35.4262C29.216 33.3742 29.6615 31.5787 30.5525 30.0397C31.4705 28.4737 32.7125 27.2587 34.2785 26.3947C35.8715 25.5037 37.6805 25.0582 39.7055 25.0582C41.1905 25.0582 42.5405 25.3012 43.7555 25.7872C44.9705 26.2462 46.01 26.9347 46.874 27.8527C47.738 28.7437 48.386 29.8237 48.818 31.0927C49.277 32.3617 49.5065 33.7792 49.5065 35.3452C49.5065 35.8852 49.358 36.2902 49.061 36.5602C48.764 36.8032 48.2915 36.9247 47.6435 36.9247H35.2505V33.5227H44.2415L43.5935 34.0492C43.5935 33.0502 43.4585 32.2402 43.1885 31.6192C42.9185 30.9982 42.5135 30.5257 41.9735 30.2017C41.4605 29.8777 40.8125 29.7157 40.0295 29.7157C39.1925 29.7157 38.4635 29.9182 37.8425 30.3232C37.2485 30.7012 36.7895 31.2682 36.4655 32.0242C36.1415 32.7802 35.9795 33.7252 35.9795 34.8592V35.2237C35.9795 37.1407 36.398 38.5177 37.235 39.3547C38.099 40.1647 39.422 40.5697 41.204 40.5697C41.798 40.5697 42.473 40.5022 43.229 40.3672C44.012 40.2052 44.7545 39.9892 45.4565 39.7192C46.1585 39.4492 46.766 39.4087 47.279 39.5977C47.792 39.7597 48.1835 40.0567 48.4535 40.4887C48.7505 40.8937 48.9125 41.3662 48.9395 41.9062C48.9665 42.4192 48.845 42.9322 48.575 43.4452C48.305 43.9312 47.8595 44.3092 47.2385 44.5792C46.2935 45.0112 45.281 45.3352 44.201 45.5512C43.148 45.7672 42.0815 45.8752 41.0015 45.8752ZM60.5503 45.8752C59.3623 45.8752 58.1473 45.7807 56.9053 45.5917C55.6903 45.4297 54.5833 45.1192 53.5843 44.6602C52.9093 44.3902 52.4233 44.0257 52.1263 43.5667C51.8563 43.1077 51.7213 42.6217 51.7213 42.1087C51.7483 41.5957 51.8968 41.1367 52.1668 40.7317C52.4638 40.2997 52.8418 40.0027 53.3008 39.8407C53.7868 39.6517 54.3268 39.6652 54.9208 39.8812C56.0548 40.2862 57.0673 40.5832 57.9583 40.7722C58.8763 40.9342 59.7538 41.0152 60.5908 41.0152C61.5898 41.0152 62.3053 40.8802 62.7373 40.6102C63.1693 40.3132 63.3853 39.9352 63.3853 39.4762C63.3853 39.0712 63.2368 38.7607 62.9398 38.5447C62.6698 38.3287 62.2783 38.1802 61.7653 38.0992L57.2698 37.3702C55.5958 37.0732 54.2998 36.4657 53.3818 35.5477C52.4638 34.6027 52.0048 33.3742 52.0048 31.8622C52.0048 30.4582 52.3963 29.2567 53.1793 28.2577C53.9893 27.2317 55.0828 26.4487 56.4598 25.9087C57.8638 25.3417 59.4703 25.0582 61.2793 25.0582C62.4943 25.0582 63.6013 25.1527 64.6003 25.3417C65.5993 25.5037 66.5713 25.8142 67.5163 26.2732C68.1103 26.5162 68.5288 26.8672 68.7718 27.3262C69.0148 27.7852 69.1093 28.2712 69.0553 28.7842C69.0013 29.2702 68.8258 29.7292 68.5288 30.1612C68.2588 30.5662 67.8808 30.8497 67.3948 31.0117C66.9088 31.1467 66.3418 31.1062 65.6938 30.8902C64.8028 30.5392 64.0063 30.2827 63.3043 30.1207C62.6293 29.9587 61.9948 29.8777 61.4008 29.8777C60.2938 29.8777 59.5108 30.0262 59.0518 30.3232C58.5928 30.6202 58.3633 30.9982 58.3633 31.4572C58.3633 31.8082 58.4848 32.1052 58.7278 32.3482C58.9708 32.5642 59.3488 32.7127 59.8618 32.7937L64.3573 33.5632C66.0853 33.8332 67.4083 34.4272 68.3263 35.3452C69.2713 36.2362 69.7438 37.4512 69.7438 38.9902C69.7438 41.1772 68.9068 42.8782 67.2328 44.0932C65.5588 45.2812 63.3313 45.8752 60.5503 45.8752ZM82.9554 45.8752C80.9304 45.8752 79.2564 45.5647 77.9334 44.9437C76.6374 44.3227 75.6654 43.3912 75.0174 42.1492C74.3694 40.8802 74.0454 39.3007 74.0454 37.4107V30.8092H72.6684C71.8044 30.8092 71.1294 30.5797 70.6434 30.1207C70.1844 29.6617 69.9549 29.0002 69.9549 28.1362C69.9549 27.2722 70.1844 26.6242 70.6434 26.1922C71.1294 25.7332 71.8044 25.5037 72.6684 25.5037H74.0454V22.9927C74.0454 21.8047 74.3559 20.9002 74.9769 20.2792C75.5979 19.6582 76.4889 19.3477 77.6499 19.3477C78.8109 19.3477 79.7019 19.6582 80.3229 20.2792C80.9439 20.9002 81.2544 21.8047 81.2544 22.9927V25.5037H84.5754C85.4664 25.5037 86.1414 25.7332 86.6004 26.1922C87.0864 26.6242 87.3294 27.2722 87.3294 28.1362C87.3294 29.0002 87.0864 29.6617 86.6004 30.1207C86.1414 30.5797 85.4664 30.8092 84.5754 30.8092H81.2544V37.1677C81.2544 38.1667 81.4839 38.9092 81.9429 39.3952C82.4289 39.8542 83.1849 40.0837 84.2109 40.0837C84.5889 40.0837 84.9534 40.0432 85.3044 39.9622C85.6554 39.8812 85.9794 39.8407 86.2764 39.8407C86.7084 39.8137 87.0594 39.9487 87.3294 40.2457C87.5994 40.5157 87.7344 41.1502 87.7344 42.1492C87.7344 42.9592 87.6129 43.6477 87.3699 44.2147C87.1269 44.7547 86.6949 45.1462 86.0739 45.3892C85.6959 45.5242 85.1829 45.6322 84.5349 45.7132C83.8869 45.8212 83.3604 45.8752 82.9554 45.8752ZM93.436 45.7942C92.248 45.7942 91.33 45.4837 90.682 44.8627C90.061 44.2417 89.7505 43.3372 89.7505 42.1492V28.7437C89.7505 27.5827 90.0475 26.6917 90.6415 26.0707C91.2625 25.4497 92.14 25.1392 93.274 25.1392C94.408 25.1392 95.272 25.4497 95.866 26.0707C96.46 26.6917 96.757 27.5827 96.757 28.7437V30.4042H96.352C96.622 28.7842 97.3105 27.5017 98.4175 26.5567C99.5515 25.6117 100.956 25.1122 102.63 25.0582C103.413 25.0312 103.993 25.2337 104.371 25.6657C104.776 26.0707 104.992 26.8402 105.019 27.9742C105.019 28.9462 104.817 29.7157 104.412 30.2827C104.007 30.8497 103.237 31.1872 102.103 31.2952L101.172 31.3762C99.7405 31.5112 98.701 31.9162 98.053 32.5912C97.405 33.2392 97.081 34.2112 97.081 35.5072V42.1492C97.081 43.3372 96.7705 44.2417 96.1495 44.8627C95.5285 45.4837 94.624 45.7942 93.436 45.7942ZM117.04 45.8752C114.826 45.8752 112.895 45.4567 111.248 44.6197C109.601 43.7827 108.319 42.5812 107.401 41.0152C106.483 39.4492 106.024 37.5997 106.024 35.4667C106.024 33.8467 106.28 32.4022 106.793 31.1332C107.306 29.8372 108.049 28.7437 109.021 27.8527C109.993 26.9347 111.154 26.2462 112.504 25.7872C113.854 25.3012 115.366 25.0582 117.04 25.0582C119.254 25.0582 121.184 25.4767 122.831 26.3137C124.478 27.1507 125.747 28.3522 126.638 29.9182C127.556 31.4572 128.015 33.3067 128.015 35.4667C128.015 37.0597 127.759 38.5042 127.246 39.8002C126.733 41.0962 125.99 42.2032 125.018 43.1212C124.073 44.0122 122.912 44.7007 121.535 45.1867C120.185 45.6457 118.687 45.8752 117.04 45.8752ZM117.04 40.5697C117.769 40.5697 118.417 40.3942 118.984 40.0432C119.551 39.6652 119.983 39.1117 120.28 38.3827C120.604 37.6267 120.766 36.6547 120.766 35.4667C120.766 33.6577 120.415 32.3617 119.713 31.5787C119.011 30.7687 118.12 30.3637 117.04 30.3637C116.311 30.3637 115.663 30.5392 115.096 30.8902C114.529 31.2412 114.083 31.7947 113.759 32.5507C113.435 33.2797 113.273 34.2517 113.273 35.4667C113.273 37.2487 113.624 38.5447 114.326 39.3547C115.028 40.1647 115.933 40.5697 117.04 40.5697Z" fill="white"/>
<path d="M88.5887 21.1823C87.9947 21.1823 87.5357 21.0203 87.2117 20.6962C86.8877 20.3587 86.7257 19.893 86.7257 19.299V8.607C86.7257 7.9995 86.8877 7.53375 87.2117 7.20975C87.5492 6.88575 88.0149 6.72375 88.6089 6.72375H93.5904C95.2104 6.72375 96.4592 7.14225 97.3367 7.97925C98.2277 8.80275 98.6732 9.9435 98.6732 11.4015C98.6732 12.8595 98.2277 14.007 97.3367 14.844C96.4592 15.6675 95.2104 16.0792 93.5904 16.0792H90.4517V19.299C90.4517 19.893 90.2964 20.3587 89.9859 20.6962C89.6754 21.0203 89.2097 21.1823 88.5887 21.1823ZM90.4517 13.224H92.9424C93.6444 13.224 94.1844 13.0755 94.5624 12.7785C94.9404 12.468 95.1294 12.009 95.1294 11.4015C95.1294 10.7805 94.9404 10.3215 94.5624 10.0245C94.1844 9.7275 93.6444 9.579 92.9424 9.579H90.4517V13.224ZM102.273 21.1823C101.679 21.1823 101.22 21.0203 100.896 20.6962C100.572 20.3587 100.41 19.893 100.41 19.299V8.607C100.41 7.9995 100.572 7.53375 100.896 7.20975C101.234 6.88575 101.7 6.72375 102.294 6.72375H107.275C108.895 6.72375 110.144 7.122 111.021 7.9185C111.912 8.7015 112.358 9.795 112.358 11.199C112.358 12.1035 112.155 12.8932 111.75 13.5682C111.359 14.2297 110.785 14.7427 110.029 15.1072C109.287 15.4582 108.369 15.6337 107.275 15.6337L107.437 15.2692H108.409C108.99 15.2692 109.503 15.411 109.948 15.6945C110.394 15.9645 110.765 16.383 111.062 16.95L112.074 18.7725C112.29 19.164 112.392 19.5487 112.378 19.9267C112.365 20.2912 112.216 20.595 111.933 20.838C111.663 21.0675 111.264 21.1823 110.738 21.1823C110.211 21.1823 109.779 21.0743 109.442 20.8582C109.118 20.6422 108.828 20.3047 108.571 19.8457L106.728 16.464C106.566 16.167 106.357 15.9645 106.101 15.8565C105.858 15.735 105.574 15.6742 105.25 15.6742H104.136V19.299C104.136 19.893 103.981 20.3587 103.671 20.6962C103.36 21.0203 102.894 21.1823 102.273 21.1823ZM104.136 13.0417H106.607C107.322 13.0417 107.869 12.9 108.247 12.6165C108.625 12.333 108.814 11.8942 108.814 11.3002C108.814 10.7332 108.625 10.308 108.247 10.0245C107.869 9.7275 107.322 9.579 106.607 9.579H104.136V13.0417ZM121.494 21.2228C120.049 21.2228 118.78 20.919 117.687 20.3115C116.593 19.6905 115.743 18.8265 115.135 17.7195C114.541 16.6125 114.244 15.3232 114.244 13.8517C114.244 12.7447 114.413 11.739 114.751 10.8345C115.102 9.93 115.594 9.15375 116.229 8.50575C116.877 7.85775 117.646 7.365 118.537 7.0275C119.428 6.6765 120.414 6.501 121.494 6.501C122.938 6.501 124.201 6.80475 125.281 7.41225C126.374 8.01975 127.225 8.877 127.832 9.984C128.44 11.0775 128.743 12.3667 128.743 13.8517C128.743 14.9587 128.568 15.9645 128.217 16.869C127.879 17.7735 127.387 18.5565 126.739 19.218C126.104 19.866 125.341 20.3655 124.45 20.7165C123.559 21.054 122.574 21.2228 121.494 21.2228ZM121.494 18.1042C122.209 18.1042 122.817 17.9355 123.316 17.598C123.816 17.2605 124.201 16.7745 124.471 16.14C124.741 15.5055 124.876 14.7427 124.876 13.8517C124.876 12.5152 124.579 11.4757 123.985 10.7332C123.391 9.99075 122.56 9.6195 121.494 9.6195C120.792 9.6195 120.184 9.78825 119.671 10.1257C119.172 10.4497 118.787 10.929 118.517 11.5635C118.247 12.1845 118.112 12.9472 118.112 13.8517C118.112 15.1882 118.409 16.2345 119.003 16.9905C119.597 17.733 120.427 18.1042 121.494 18.1042Z" fill="#59A352"/>
</g>
<defs>
<clipPath id="clip0_9_5">
<rect width="130.43" height="51.375" fill="white"/>
</clipPath>
</defs>
</svg>
